<svg width="370" height="190" viewBox="0 0 370 190" fill="none" xmlns="http://www.w3.org/2000/svg">
<g clip-path="url(#clip0_33_446)">
<g filter="url(#filter0_d_33_446)">
<path d="M279.921 46.2327C272.151 46.227 264.418 47.293 256.939 49.4006C238.151 25.1937 208.786 9.61167 175.782 9.61167C126.828 9.61167 85.8811 43.8835 75.5832 89.7542C72.3 89.0646 68.897 89.2024 65.6802 90.155C62.4634 91.1076 59.5336 92.8453 57.1543 95.2118C54.775 97.5782 53.0207 100.499 52.0492 103.712C51.0778 106.925 50.9196 110.33 51.5888 113.619C29.351 119.338 12.9184 139.535 12.9184 163.571C12.9055 172.878 15.4216 182.014 20.1974 190H339.998C355.036 174.749 364.32 153.799 364.32 130.686C364.321 84.0433 326.533 46.2327 279.921 46.2327Z" fill="url(#paint0_linear_33_446)" shape-rendering="crispEdges"/>
</g>
<path d="M255.106 84.9612H241.132C239.365 84.9612 237.933 86.3939 237.933 88.1613V116.291C237.933 118.059 239.365 119.491 241.132 119.491H255.106C256.873 119.491 258.304 118.059 258.304 116.291V88.1613C258.304 86.3939 256.873 84.9612 255.106 84.9612Z" fill="#E0880C"/>
<path d="M185.088 84.9612H171.113C169.347 84.9612 167.915 86.3939 167.915 88.1613V116.291C167.915 118.059 169.347 119.491 171.113 119.491H185.088C186.854 119.491 188.286 118.059 188.286 116.291V88.1613C188.286 86.3939 186.854 84.9612 185.088 84.9612Z" fill="#E0880C"/>
<path d="M127.314 84.9612H113.34C111.573 84.9612 110.141 86.3939 110.141 88.1613V116.291C110.141 118.059 111.573 119.491 113.34 119.491H127.314C129.081 119.491 130.512 118.059 130.512 116.291V88.1613C130.512 86.3939 129.081 84.9612 127.314 84.9612Z" fill="#E0880C"/>
<path d="M263.855 125.841C252.883 125.841 243.632 133.203 240.763 143.261H286.946C284.078 133.209 274.825 125.841 263.855 125.841ZM326.852 125.841C315.881 125.841 306.629 133.203 303.761 143.261H349.945C347.075 133.209 337.824 125.841 326.852 125.841Z" fill="#2A7E54"/>
<path d="M296.838 118.378C281.167 118.378 267.951 128.895 263.854 143.259H329.822C325.726 128.9 312.509 118.378 296.838 118.378Z" fill="#2A7E54"/>
<path d="M281.914 168.824H95.3252C93.6692 168.824 92.0811 168.166 90.9102 166.994C89.7392 165.822 89.0814 164.233 89.0814 162.576C89.0814 160.919 89.7392 159.33 90.9102 158.158C92.0811 156.987 93.6692 156.329 95.3252 156.329H281.914C283.57 156.329 285.158 156.987 286.329 158.158C287.5 159.33 288.157 160.919 288.157 162.576C288.157 164.233 287.5 165.822 286.329 166.994C285.158 168.166 283.57 168.824 281.914 168.824Z" fill="#17432D"/>
<path d="M215.336 57.5352C216.22 57.5352 217.067 57.184 217.692 56.5588C218.317 55.9335 218.668 55.0856 218.668 54.2014C218.668 55.0856 219.019 55.9335 219.644 56.5588C220.268 57.184 221.116 57.5352 222 57.5352C221.116 57.5352 220.268 57.8864 219.644 58.5117C219.019 59.1369 218.668 59.9849 218.668 60.8691C218.668 59.9849 218.317 59.1369 217.692 58.5117C217.067 57.8864 216.22 57.5352 215.336 57.5352ZM117.018 57.5352C117.901 57.5352 118.749 57.184 119.373 56.5588C119.998 55.9335 120.349 55.0856 120.349 54.2014C120.349 54.6392 120.435 55.0727 120.603 55.4772C120.77 55.8817 121.016 56.2492 121.325 56.5588C121.634 56.8683 122.002 57.1139 122.406 57.2814C122.81 57.449 123.243 57.5352 123.681 57.5352C123.243 57.5352 122.81 57.6214 122.406 57.789C122.002 57.9565 121.634 58.2021 121.325 58.5117C121.016 58.8212 120.77 59.1888 120.603 59.5932C120.435 59.9977 120.349 60.4312 120.349 60.8691C120.349 59.9849 119.998 59.1369 119.373 58.5117C118.749 57.8864 117.901 57.5352 117.018 57.5352ZM170.345 34.8087C170.838 34.8087 171.311 34.6127 171.66 34.2639C172.008 33.915 172.204 33.4419 172.204 32.9485C172.204 33.4419 172.4 33.915 172.749 34.2639C173.097 34.6127 173.57 34.8087 174.063 34.8087C173.57 34.8087 173.097 35.0047 172.749 35.3536C172.4 35.7024 172.204 36.1756 172.204 36.6689C172.204 36.1756 172.008 35.7024 171.66 35.3536C171.311 35.0047 170.838 34.8087 170.345 34.8087ZM259.728 78.4227C260.221 78.4227 260.694 78.2267 261.043 77.8778C261.391 77.529 261.587 77.0558 261.587 76.5625C261.587 77.0558 261.783 77.529 262.132 77.8778C262.48 78.2267 262.953 78.4227 263.446 78.4227C262.953 78.4227 262.48 78.6187 262.132 78.9675C261.783 79.3164 261.587 79.7895 261.587 80.2829C261.587 79.7895 261.391 79.3164 261.043 78.9675C260.694 78.6187 260.221 78.4227 259.728 78.4227ZM198.319 98.057C198.812 98.057 199.285 97.8611 199.634 97.5122C199.982 97.1633 200.178 96.6902 200.178 96.1968C200.178 96.6902 200.374 97.1633 200.723 97.5122C201.071 97.8611 201.544 98.057 202.037 98.057C201.544 98.057 201.071 98.253 200.723 98.6019C200.374 98.9507 200.178 99.4239 200.178 99.9172C200.178 99.4239 199.982 98.9507 199.634 98.6019C199.285 98.253 198.812 98.057 198.319 98.057ZM104.671 69.7556C105.164 69.7556 105.637 69.5596 105.986 69.2108C106.335 68.8619 106.53 68.3888 106.53 67.8954C106.53 68.3888 106.726 68.8619 107.075 69.2108C107.423 69.5596 107.896 69.7556 108.389 69.7556C107.896 69.7556 107.423 69.9516 107.075 70.3004C106.726 70.6493 106.53 71.1224 106.53 71.6158C106.53 71.1224 106.335 70.6493 105.986 70.3004C105.637 69.9516 105.164 69.7556 104.671 69.7556Z" fill="white"/>
<path d="M53.5279 158.483C49.4818 158.483 45.5458 159.802 42.315 162.239C39.0842 164.676 36.7342 168.1 35.6204 171.992H71.4355C70.3216 168.1 67.9717 164.676 64.7408 162.239C61.51 159.802 57.574 158.483 53.5279 158.483ZM102.384 158.483C98.3378 158.483 94.4018 159.802 91.171 162.239C87.9401 164.676 85.5901 168.1 84.4763 171.992H120.293C119.179 168.099 116.828 164.676 113.597 162.239C110.366 159.801 106.43 158.483 102.384 158.483Z" fill="#403D38"/>
<path d="M79.1075 152.696C66.9539 152.696 56.7049 160.852 53.528 171.993H104.687C101.51 160.852 91.2611 152.696 79.1075 152.696Z" fill="#403D38"/>
<path d="M60.7747 165.807C58.3539 165.807 55.999 166.596 54.066 168.054C52.133 169.512 50.727 171.56 50.0604 173.889H71.4901C70.8235 171.56 69.4172 169.512 67.484 168.053C65.5508 166.595 63.1956 165.807 60.7747 165.807ZM90.0065 165.807C87.5858 165.807 85.2309 166.596 83.2979 168.054C81.3649 169.512 79.9588 171.56 79.2923 173.889H100.722C100.055 171.56 98.6491 169.512 96.7159 168.053C94.7826 166.595 92.4275 165.807 90.0065 165.807Z" fill="#8C8691"/>
<path d="M76.0785 162.343C72.6204 162.343 69.2562 163.47 66.4949 165.553C63.7335 167.636 61.7252 170.562 60.7736 173.889H91.3857C90.434 170.562 88.4254 167.635 85.6635 165.552C82.9017 163.469 79.5371 162.343 76.0785 162.343Z" fill="#8C8691"/>
<path d="M146.681 167.436C145.227 167.436 143.812 167.91 142.65 168.786C141.489 169.663 140.644 170.893 140.244 172.293H153.12C152.719 170.893 151.875 169.662 150.713 168.786C149.551 167.91 148.136 167.436 146.681 167.436Z" fill="#49AF8A"/>
<path d="M138.314 165.355C136.236 165.355 134.215 166.032 132.555 167.284C130.896 168.536 129.69 170.294 129.118 172.293H147.509C146.938 170.294 145.731 168.536 144.072 167.284C142.413 166.032 140.391 165.355 138.314 165.355Z" fill="#49AF8A"/>
<path d="M304.724 109.482C304.724 109.482 300.785 108.855 298.733 108.734C298.684 113.112 301.699 118.099 303.006 119.406C304.642 121.036 306.141 124.486 306.051 127.657C305.96 130.829 311.034 130.64 311.034 130.64C315.264 128.541 314.583 118.448 313.275 112.987C312.269 113.835 311.319 114.745 310.429 115.713C310.525 114.822 311.661 112.621 312.636 110.859C310.503 104.912 304.57 94.8101 300.792 97.3408C296.596 100.146 301.716 100.893 299.402 105.655C299.171 106.132 299.002 106.635 298.896 107.154C300.766 107.581 303.998 108.448 304.724 109.482Z" fill="#262517"/>
<path d="M313.326 154.749C313.326 154.749 313.381 132.647 307.353 112.784" stroke="#1A3F1A" stroke-width="10" stroke-linecap="round" stroke-linejoin="round"/>
<path d="M308.551 117.283C306.901 116.295 305.028 115.741 303.106 115.673" stroke="#1A3F1A" stroke-width="10" stroke-linecap="round" stroke-linejoin="round"/>
<path d="M322.435 125.983C325.115 126.296 327.327 123.996 327.327 123.996C330.696 122.825 334.562 118.062 335.917 113.178C336.93 109.537 339.161 108.867 342.578 107.739C341.145 104.509 338.292 101.741 338.292 101.741C340.296 102.116 343.115 104.472 345.439 106.732C345.773 106.594 346.125 106.452 346.48 106.299C352.139 103.848 355.886 95.3436 357.265 91.1944C358.645 87.0452 366.103 88.6481 369.414 78.1776C372.726 67.7072 361.269 73.388 353.242 73.2019C352.348 73.1723 351.454 73.2286 350.571 73.3701C350.281 75.7661 349.996 78.4472 350.061 79.4274C350.061 79.4274 348.064 77.3021 346.721 75.0755C344.361 77.0404 343.271 80.3219 340.901 83.7938C337.038 89.4345 330.511 89.2619 326.39 94.1306C322.269 98.9994 325.365 105.963 321.727 112.989C318.089 120.014 319.751 125.669 322.435 125.983Z" fill="url(#paint1_linear_33_446)"/>
<path d="M317.901 147.327C317.901 147.327 321.764 99.416 355.882 81.2464" stroke="#1A3F1A" stroke-width="10" stroke-linecap="round" stroke-linejoin="round"/>
<path d="M331.44 105.477C331.44 105.477 330.017 100.984 327.685 98.3188M340.568 93.1437C340.568 93.1437 346.029 92.1412 350.247 94.1696" stroke="#1A3F1A" stroke-width="10" stroke-linecap="round" stroke-linejoin="round"/>
<path d="M306.53 141.103H325.451V167.523H306.53V141.103Z" fill="#504658"/>
<path d="M304.912 138.04H327.069V162.195C327.069 162.796 326.831 163.372 326.407 163.797C325.982 164.221 325.407 164.46 324.806 164.46H307.174C306.573 164.46 305.998 164.221 305.573 163.797C305.149 163.372 304.911 162.796 304.911 162.195V138.04H304.912Z" fill="#605767"/>
<path d="M67.3957 124.141C67.8677 124.173 68.3207 124.339 68.7011 124.62C69.0816 124.901 69.3736 125.286 69.5427 125.728C69.7117 126.17 69.7508 126.651 69.6552 127.115C69.5596 127.578 69.3333 128.004 69.0032 128.343C70.1545 130.985 71.1449 133.693 71.9686 136.455C72.5019 134.18 73.467 130.836 75.0454 127.789C74.6282 127.358 74.3809 126.791 74.3492 126.192C74.3175 125.593 74.5035 125.003 74.873 124.531C75.2424 124.059 75.7702 123.737 76.3588 123.624C76.9474 123.511 77.5569 123.615 78.0747 123.917C78.5925 124.219 78.9835 124.698 79.1754 125.266C79.3673 125.834 79.3471 126.453 79.1186 127.007C78.8901 127.562 78.4687 128.014 77.9323 128.282C77.3959 128.55 76.7809 128.614 76.2009 128.463C73.8543 133.03 72.8993 138.433 72.7623 139.267C74.3597 145.335 75.1812 151.122 75.602 155.629C76.3568 163.729 76.0161 169.568 76.0128 169.626L74.677 169.545C74.677 169.488 75.0109 163.753 74.2696 155.753C74.0469 153.348 73.7052 150.573 73.1909 147.587C72.4117 147.022 69.4061 145.014 64.7687 143.793C64.5232 144.339 64.0886 144.778 63.545 145.028C63.0014 145.279 62.3856 145.324 61.8114 145.155C61.2371 144.987 60.7432 144.616 60.4209 144.111C60.0986 143.607 59.9696 143.003 60.0579 142.41C60.1461 141.818 60.4456 141.278 60.9009 140.889C61.3563 140.501 61.9368 140.29 62.5352 140.297C63.1336 140.303 63.7095 140.526 64.1564 140.924C64.6034 141.322 64.8912 141.869 64.9668 142.463C67.7469 143.164 70.4072 144.275 72.8603 145.76C71.8451 140.446 70.2711 134.591 67.8366 129.011C67.4895 129.099 67.1275 129.11 66.7755 129.045C66.4235 128.979 66.0899 128.838 65.7976 128.631C65.5054 128.424 65.2614 128.157 65.0826 127.846C64.9037 127.536 64.7942 127.191 64.7616 126.834C64.7291 126.477 64.7742 126.117 64.8938 125.78C65.0135 125.442 65.2049 125.134 65.4548 124.878C65.7048 124.621 66.0073 124.422 66.3416 124.294C66.6759 124.166 67.034 124.112 67.3913 124.135L67.3957 124.141ZM45.3283 137.843C45.7234 137.674 46.1586 137.621 46.5824 137.692C47.0063 137.763 47.401 137.953 47.72 138.242C48.0389 138.53 48.2687 138.903 48.3823 139.318C48.4958 139.733 48.4882 140.171 48.3605 140.582C50.3814 142.246 52.2996 144.031 54.1045 145.928C53.5991 143.866 53.0025 140.761 53.0247 137.642C52.5097 137.466 52.0759 137.108 51.8036 136.637C51.5313 136.165 51.4389 135.611 51.5435 135.076C51.6481 134.541 51.9427 134.063 52.3727 133.729C52.8026 133.394 53.339 133.227 53.8825 133.258C54.4261 133.289 54.9401 133.516 55.3294 133.897C55.7187 134.278 55.9571 134.787 56.0005 135.33C56.0439 135.873 55.8892 136.413 55.5652 136.851C55.2413 137.289 54.7698 137.594 54.2381 137.711C54.2214 142.379 55.6741 147.146 55.9078 147.881C59.7026 152.128 62.7538 156.472 64.9468 159.953C68.8963 166.2 71.0269 171.067 71.048 171.116L69.9349 171.601C69.9137 171.553 67.8199 166.771 63.9238 160.602C62.5907 158.493 61.177 156.436 59.6859 154.436C58.821 154.301 55.5672 153.913 51.3038 154.839C51.33 155.383 51.1588 155.917 50.8219 156.344C50.485 156.771 50.0051 157.061 49.4709 157.162C48.9366 157.262 48.3841 157.165 47.9154 156.89C47.4467 156.614 47.0935 156.178 46.921 155.663C46.7485 155.147 46.7684 154.586 46.977 154.084C47.1856 153.581 47.5688 153.172 48.0559 152.93C48.5429 152.688 49.1008 152.631 49.6266 152.769C50.1524 152.907 50.6105 153.231 50.9164 153.681C53.4559 153.102 56.0674 152.904 58.6651 153.094C55.6529 149.211 51.9661 145.12 47.696 141.606C47.4512 141.821 47.1628 141.98 46.8507 142.072C46.5386 142.164 46.2103 142.188 45.8883 142.141C45.5663 142.094 45.2583 141.977 44.9856 141.8C44.7128 141.622 44.4818 141.387 44.3085 141.112C44.1351 140.836 44.0235 140.526 43.9814 140.204C43.9392 139.881 43.9675 139.553 44.0644 139.242C44.1612 138.931 44.3242 138.645 44.5422 138.403C44.7602 138.161 45.028 137.97 45.3271 137.841L45.3283 137.843Z" fill="#133524"/>
<path d="M196.757 58.1389C196.757 58.1389 197.365 52.4916 198.571 51.723C199.776 50.9544 199.806 56.3957 197.738 59.1348L196.757 58.1389Z" fill="white"/>
<path d="M196.016 57.7624C196.921 57.5731 197.83 57.3637 198.757 57.2055C201.472 70.9886 196.393 78.494 188.461 88.6782C187.247 90.2376 186.168 90.222 185.01 88.5089C184.66 88.6626 184.662 88.6637 185.01 88.5089C183.855 86.7957 184.507 86.4448 185.646 84.9812C193.094 75.413 197.608 70.9096 196.016 57.7624Z" fill="#49AF8A"/>
<path d="M189.754 67.6036C188.68 67.5145 187.364 68.2285 186.978 69.2922C186.592 70.356 187.393 71.4743 188.403 71.8408C189.413 72.2072 191.488 71.1591 191.873 70.0953C192.258 69.0316 191.115 67.7161 189.754 67.6036Z" fill="#2D334A"/>
<path d="M185.737 63.6571C183.622 61.9506 179.87 61.5741 177.57 63.2461C175.269 64.918 175.369 68.3822 176.961 70.5765C178.553 72.7709 183.398 74.1131 187.018 71.8642C189.434 70.3638 188.416 65.818 185.737 63.6571Z" fill="#2D334A"/>
<path d="M186.201 72.0468C184.765 70.8606 182.263 70.5487 180.755 71.6436C179.248 72.7386 179.368 75.0822 180.463 76.5893C181.557 78.0963 185.433 78.6956 186.939 77.6006C188.445 76.5057 188.019 73.5495 186.201 72.0468Z" fill="#2D334A"/>
<path d="M185.106 75.0621C186.517 78.0807 189.762 79.5444 191.605 78.6822C193.449 77.8201 193.193 74.9574 191.781 71.9377C190.37 68.918 188.158 68.0826 186.315 68.9447C184.471 69.8068 183.695 72.0402 185.106 75.0621Z" fill="white"/>
<path d="M183.769 73.3445C183.769 73.3445 183.503 71.1168 184.687 69.7066C185.872 68.2964 188.843 67.0578 190.723 69.4381C190.723 69.4381 191.904 71.2515 189.596 72.4924C187.289 73.7333 187.231 72.2886 186.504 73.9404C185.777 75.5923 184.37 75.11 184.253 75.4709L183.769 73.3445Z" fill="#2D334A"/>
<path d="M179.819 123.73C178.39 122.989 177.252 121.777 175.85 120.987C174.724 120.354 173.484 120.018 172.204 119.832C174.741 114.387 176.7 108.979 177.336 104.33C177.336 104.33 178.471 88.784 180.641 84.7161C182.459 81.3065 184.275 80.6248 185.289 80.2004C186.708 79.6067 188.337 79.7983 189.456 80.8521L189.519 80.9122C190.814 82.162 190.855 84.8687 191.058 87.6857C191.26 90.5027 192.336 89.9881 189.849 94.8881C188.965 96.6302 190.406 106.371 190.851 112.096C191.003 113.952 191.276 115.796 191.667 117.617C192.019 119.278 192.295 121.063 192.516 122.939C188.156 123.846 183.652 125.717 179.819 123.73Z" fill="#49AF8A"/>
<path d="M175.059 104.647C175.059 104.647 180.809 106.218 181.405 107.597C182 108.976 176.359 108.101 173.864 105.499L175.059 104.647Z" fill="white"/>
<path d="M175.768 103.563C175.407 104.52 175.019 105.493 174.544 106.449C157.805 96.3985 171.161 85.6351 184.909 81.6596C187.011 81.0514 187.065 85.7041 183.769 86.319C172.201 88.4721 164.901 96.0599 175.768 103.563Z" fill="#49AF8A"/>
<path d="M186.16 75.0588L189.644 75.3651C189.603 75.8429 189.127 80.3776 188.642 82.0239C188.42 82.5184 187.522 82.5964 186.639 82.1987C185.843 81.8401 185.334 81.2208 185.401 80.7396C185.685 79.7471 186.014 76.7263 186.16 75.0588Z" fill="white"/>
<path d="M184.122 76.5146C184.456 77.2175 185.569 77.79 186.075 77.5516C186.582 77.3133 186.445 76.685 186.117 75.9822C185.788 75.2793 185.069 74.8148 184.558 75.0532C184.047 75.2916 183.793 75.8117 184.122 76.5146Z" fill="white"/>
<path d="M237.386 117.271C239.407 116.595 243.572 117.679 245.581 117.271C248.54 116.668 249.997 116.892 252.928 117.064C253.302 107.88 252.983 98.272 253.654 89.2663C253.798 87.3727 253.894 86.2444 253.542 84.8253C253.068 82.915 252.074 81.595 250.784 80.8977C249.204 80.0322 247.183 80.0991 245.14 81.1439C244.824 81.2881 244.525 81.4679 244.25 81.6797C243.038 82.6075 241.922 84.4165 241.743 87.8305C241.287 96.3561 238.993 108.412 237.386 117.271Z" fill="#FDD699"/>
<path d="M227.539 84.1246C227.539 84.1246 229.491 77.9426 231.013 77.3556C232.535 76.7686 231.347 82.8626 228.411 85.4613L227.539 84.1246Z" fill="white"/>
<path d="M226.771 83.6078C228.011 83.9609 229.331 84.1191 230.595 84.4243C227.277 102.885 241.72 95.8972 244.45 84.1736C244.916 82.1687 246.287 80.2996 248.809 82.4137C249.238 83.796 249.388 85.6094 248.316 87.9163C241.312 102.996 223.677 104.985 226.771 83.6078Z" fill="#FDD699"/>
<path d="M250.342 75.335C248.368 78.3714 244.654 79.4564 242.799 78.2511C240.945 77.0459 241.651 74.0006 243.626 70.9641C245.601 67.9277 248.109 67.3607 249.964 68.5671C251.818 69.7734 252.317 72.2975 250.342 75.335Z" fill="white"/>
<path d="M251.03 77.2687C250.57 77.976 249.281 78.4227 248.77 78.0896C248.259 77.7566 248.503 77.1005 248.963 76.3932C249.422 75.6859 250.267 75.2949 250.778 75.628C251.289 75.961 251.49 76.5625 251.03 77.2687Z" fill="white"/>
<path d="M249.902 74.8315L246.118 74.4617C246.066 74.9797 245.672 79.9197 245.863 81.7788C246.002 82.3525 246.945 82.6153 247.97 82.3658C248.892 82.143 249.558 81.5861 249.585 81.0537C249.475 79.9376 249.726 76.6438 249.902 74.8315Z" fill="white"/>
<path d="M248.493 76.3743C247.936 75.7705 247.41 76.3141 246.067 77.0693C244.725 77.8245 242.325 77.6263 242.158 74.4851C242.067 72.7709 241.227 74.9218 240.986 75.5801C240.939 75.7087 240.908 75.8427 240.895 75.9788C240.736 77.4926 241.188 78.4294 242.239 79.1133C243.502 79.9353 245.389 79.9766 247.224 79.2303C247.657 79.0592 248.029 78.7622 248.292 78.3776C248.555 77.9931 248.697 77.5386 248.699 77.0727C248.698 76.7775 248.637 76.5291 248.493 76.3743ZM252.04 73.6876C252.04 73.6876 252.663 71.3251 251.594 69.632C250.526 67.9389 247.52 66.1522 245.138 68.4323C245.138 68.4323 243.593 70.2067 245.89 71.8853C248.188 73.5639 248.469 72.0223 249.002 73.9104C249.535 75.7984 251.122 75.491 251.194 75.8975L252.04 73.6876Z" fill="#2E1A3D"/>
<path d="M242.135 103.294L243.064 108.23L246.188 103.502L247.512 83.5565H246.19L242.135 103.294Z" fill="#A69400"/>
<path d="M255.41 113.652C255.41 113.652 249.288 115.762 248.731 117.3C248.175 118.839 254.241 117.49 256.763 114.491L255.41 113.652Z" fill="white"/>
<path d="M254.946 113.092C255.512 114.018 256.109 114.935 256.663 115.797C272.147 103.611 271.191 96.2392 254.386 83.3672C249.144 79.3572 247.999 85.0859 252.218 87.8572C266.15 97.0066 268.344 103.462 254.946 113.092Z" fill="#FDD699"/>
<path d="M241.654 74.7825C241.654 74.7825 243.187 74.2256 243.693 74.5765C244.199 74.9273 244.215 74.846 244.57 75.0343C244.925 75.2225 245.717 76.1849 245.676 77.0081C245.634 77.8312 245.212 77.8245 245.042 77.3701C244.872 76.9156 243.834 75.9777 243.859 75.4765C243.859 75.4765 242.857 75.3929 242.422 75.2537C242.111 75.1731 241.784 75.1731 241.473 75.2537C241.473 75.2537 241.136 74.9363 241.654 74.7825Z" fill="#2E1A3D"/>
<path d="M145.519 69.7823C145.519 69.7823 145.776 63.8398 146.985 62.9565C148.194 62.0732 148.589 67.7562 146.611 70.7536L145.519 69.7823Z" fill="white"/>
<path d="M145.132 68.967C146.096 69.1218 147.066 69.2488 147.993 69.3869C145.069 85.6573 138.109 90.5796 122.206 85.1171C119.774 84.2817 120.132 83.7593 121.023 81.9437C120.752 81.6986 120.762 81.6864 121.023 81.9437C121.913 80.128 122.365 80.0501 124.509 80.881C138.527 86.2978 141.109 81.8891 145.132 68.967Z" fill="#59525E"/>
<path d="M135.398 114.118C133.729 113.895 131.588 113.8 128.865 113.912C124.858 114.084 122.556 114.692 120.967 115.323C120.435 114.014 119.953 112.734 119.52 111.483C119.363 111.037 119.216 110.592 119.075 110.146C118.84 109.428 118.623 108.722 118.424 108.03C118.291 107.571 118.164 107.116 118.046 106.667C117.773 105.648 117.535 104.653 117.325 103.67C117.227 103.204 117.136 102.739 117.049 102.28C116.84 101.169 116.664 100.053 116.52 98.9326C116.461 98.4603 116.409 97.9947 116.359 97.5279C116.065 94.6222 115.996 91.6981 116.153 88.7818C116.224 87.3183 116.397 85.8615 116.67 84.422C117.405 80.6259 121.888 78.9462 124.95 81.3032L125.611 81.8111C126.438 82.4503 127.078 83.3 127.464 84.2714C127.85 85.2427 127.968 86.3 127.805 87.3326C127.438 89.7943 127.694 93.3687 129.364 98.9014C129.504 99.3569 129.651 99.8225 129.809 100.306C130.032 100.982 130.271 101.689 130.53 102.422C130.687 102.868 130.852 103.313 131.024 103.773C131.327 104.589 131.654 105.436 132.01 106.319C132.185 106.756 132.367 107.201 132.555 107.655C132.748 108.128 132.954 108.614 133.164 109.103C133.35 109.534 133.538 109.972 133.734 110.42C134.246 111.597 134.801 112.83 135.398 114.118Z" fill="#BCF0F2"/>
<path d="M135.398 114.118C133.729 113.895 131.588 113.8 128.865 113.912C124.858 114.084 122.556 114.692 120.967 115.323C120.435 114.014 119.953 112.734 119.52 111.483C119.363 111.037 119.216 110.592 119.075 110.146C118.84 109.428 118.623 108.722 118.424 108.03C118.291 107.571 118.164 107.116 118.046 106.667C117.773 105.648 117.535 104.653 117.325 103.67C117.227 103.204 117.136 102.739 117.049 102.28C116.84 101.169 116.664 100.053 116.52 98.9326C116.461 98.4603 116.409 97.9947 116.359 97.5279C116.065 94.6222 115.996 91.6981 116.153 88.7818C116.224 87.3183 116.397 85.8615 116.67 84.422C117.405 80.6259 121.888 78.9462 124.95 81.3032L125.611 81.8111C126.438 82.4503 127.078 83.3 127.464 84.2714C127.85 85.2427 127.968 86.3 127.805 87.3326C127.438 89.7943 127.694 93.3687 129.364 98.9014C129.504 99.3569 129.651 99.8225 129.809 100.306C130.032 100.982 130.271 101.689 130.53 102.422C130.687 102.868 130.852 103.313 131.024 103.773C131.327 104.589 131.654 105.436 132.01 106.319C132.185 106.756 132.367 107.201 132.555 107.655C132.748 108.128 132.954 108.614 133.164 109.103C133.35 109.534 133.538 109.972 133.734 110.42C134.246 111.597 134.801 112.83 135.398 114.118Z" fill="#89CBB3"/>
<path d="M125.726 74.4907C124.529 77.7688 121.273 79.5923 119.275 78.8604C117.277 78.1286 117.279 75.1189 118.476 71.843C119.672 68.5671 121.904 67.49 123.906 68.2218C125.907 68.9536 126.926 71.2114 125.726 74.4907Z" fill="white"/>
<path d="M120.238 74.9273L123.884 74.5709C123.933 75.0699 124.314 79.8262 124.13 81.6184C123.996 82.1754 123.087 82.4237 122.099 82.1843C121.209 81.9693 120.569 81.429 120.541 80.92C120.65 79.8451 120.407 76.6728 120.238 74.9273Z" fill="white"/>
<path d="M126.967 72.5759C126.967 72.5759 127.042 70.2234 125.677 68.8645C124.312 67.5056 121.101 66.4808 119.356 69.1363C119.356 69.1363 118.29 71.1413 120.81 72.2195C123.33 73.2977 123.259 71.7906 124.168 73.4448C125.076 75.0989 126.505 74.4695 126.654 74.836L126.967 72.5759Z" fill="#2E1A3D"/>
<path d="M126.989 75.2916C126.711 76.0546 125.598 76.7541 125.046 76.5514C124.494 76.3486 124.582 75.6803 124.86 74.9173C125.138 74.1543 125.846 73.604 126.398 73.8034C126.95 74.0028 127.268 74.5286 126.989 75.2916Z" fill="white"/>
<path d="M124.973 76.0022C124.973 76.0022 124.271 75.6458 123.606 76.587C122.942 77.5282 122.136 78.2723 121.052 78.1464C119.967 78.0206 119.747 77.7744 118.873 77.6652C117.999 77.5561 117.775 75.159 117.822 74.7135C117.941 73.623 117.461 74.4751 117.254 75.1768C117.047 75.8786 116.292 77.9303 118.041 79.0208C119.789 80.1113 120.446 80.2461 121.671 79.6736C122.895 79.101 124.731 78.416 124.973 76.0022Z" fill="#2E1A3D"/>
<path d="M132.229 116.347C131.192 118.045 122.284 120.394 121.397 119.651C120.994 119.317 119.616 116.283 118.192 111.981C117.901 111.083 117.601 110.127 117.309 109.132C117.072 108.317 116.838 107.473 116.616 106.609C116.369 105.668 116.136 104.698 115.922 103.713C115.195 100.41 114.657 96.9109 114.535 93.5581C114.103 81.7922 119.631 79.8719 120.568 80.216C120.568 80.216 118.55 81.0748 119.913 81.9381C121.275 82.8014 124.417 83.4418 124.641 85.8823C124.864 88.3229 125.077 98.2464 126.367 102.083C126.425 102.257 126.493 102.437 126.566 102.631C126.867 103.397 127.289 104.301 127.779 105.289C128.065 105.872 128.375 106.482 128.69 107.1C129.127 107.958 129.581 108.836 130.009 109.695C131.514 112.697 132.768 115.468 132.229 116.347Z" fill="#6E6675"/>
<path d="M134.901 115.323C133.985 115.435 132.636 112.781 131.346 109.642C130.982 108.759 130.619 107.838 130.274 106.926C130.052 106.32 129.823 105.717 129.615 105.136C129.242 104.127 128.903 103.181 128.613 102.376C128.259 101.405 127.978 100.643 127.799 100.231C126.797 97.9312 126.518 86.8837 126.685 85.0213C126.852 83.1589 124.179 80.7997 124.179 80.7997C125.032 80.6104 127.287 82.338 127.795 83.4095C128.797 85.5148 128.789 91.347 129.448 96.5678C129.656 98.2174 130.161 100.066 130.792 101.885C131.111 102.817 131.465 103.743 131.834 104.631C132.056 105.188 132.295 105.723 132.527 106.232C132.964 107.212 133.4 108.119 133.797 108.891C134.217 109.738 134.681 110.562 135.188 111.36C136.263 112.951 136.909 115.085 134.901 115.323Z" fill="#6E6675"/>
<path d="M133.573 103.724C133.573 103.724 139.332 105.194 139.949 106.559C140.566 107.925 134.925 107.146 132.395 104.594L133.573 103.724Z" fill="white"/>
<path d="M133.805 103.175C133.86 104.264 134.219 105.18 134.492 106.024C116.136 109.991 102.672 103.492 114.967 85.3466C116.847 82.5708 121.472 85.3989 118.156 89.0736C105.336 103.284 122.435 104.111 133.805 103.175Z" fill="#59525E"/>
<path d="M203.425 131.832L199.856 133.169C203.454 141.548 207.054 149.909 210.912 157.183C211.85 156.515 211.639 155.675 212.489 154.896C208.138 147.042 205.529 139.354 203.425 131.832Z" fill="white"/>
<path d="M212.982 154.895C212.982 154.895 214.955 157.711 218.993 157.926C218.993 157.926 220.831 158.194 218.659 158.85C216.487 159.506 212.884 159.33 211.616 158.361C211.616 158.361 211.367 160.829 211.026 160.154C210.685 159.479 209.152 156.391 209.152 156.391L212.982 154.895Z" fill="#2D334A"/>
<path d="M200.898 131.762L197.106 132.146C198.448 141.169 199.798 150.17 201.67 158.188C202.747 157.779 202.756 156.914 203.777 156.379C201.578 147.673 201.015 139.572 200.898 131.762Z" fill="white"/>
<path d="M204.261 156.5C204.261 156.5 205.452 159.73 209.302 160.966C209.302 160.966 211.01 161.694 208.745 161.774C206.48 161.854 203.039 160.764 202.06 159.504C202.06 159.504 201.19 161.827 201.033 161.087C200.876 160.347 200.181 156.966 200.181 156.966L204.261 156.5Z" fill="#2D334A"/>
<path d="M230.602 129.282H259.274V133.583C259.274 133.938 259.133 134.278 258.883 134.528C258.632 134.779 258.293 134.92 257.938 134.92H231.941C231.587 134.92 231.247 134.779 230.997 134.528C230.746 134.278 230.606 133.938 230.606 133.583V129.282H230.602Z" fill="#B3B3B3"/>
<path d="M237.936 132.683H251.939V136.984C251.939 137.338 251.799 137.678 251.548 137.929C251.298 138.18 250.958 138.32 250.604 138.32H239.275C238.921 138.32 238.581 138.18 238.33 137.929C238.08 137.678 237.939 137.338 237.939 136.984V132.683H237.936Z" fill="#B3B3B3"/>
<path d="M243.578 132.683H246.298V156.052H243.578V132.683Z" fill="#8C8691"/>
<path d="M251.16 156.053H238.611C237.923 156.053 237.263 156.327 236.777 156.814C236.29 157.301 236.017 157.961 236.017 158.65V160.682H253.754V158.65C253.754 157.961 253.481 157.301 252.994 156.814C252.508 156.327 251.848 156.054 251.16 156.053Z" fill="#8C8691"/>
<path d="M232.772 123.418H257.103C258.293 123.418 259.433 123.891 260.274 124.732C261.115 125.573 261.587 126.715 261.587 127.905C261.587 128.753 261.25 129.566 260.651 130.166C260.052 130.766 259.239 131.103 258.391 131.103H231.484C230.636 131.103 229.823 130.766 229.224 130.166C228.625 129.566 228.288 128.753 228.288 127.905C228.288 126.715 228.76 125.573 229.601 124.732C230.442 123.891 231.583 123.418 232.772 123.418Z" fill="#605767"/>
<path d="M169.408 129.282H198.08V133.583C198.08 133.938 197.939 134.278 197.689 134.528C197.438 134.779 197.098 134.92 196.744 134.92H170.747C170.393 134.92 170.053 134.779 169.802 134.528C169.552 134.278 169.411 133.938 169.411 133.583V129.282H169.408Z" fill="#B3B3B3"/>
<path d="M176.742 132.683H190.746V136.984C190.746 137.338 190.605 137.678 190.355 137.929C190.104 138.18 189.765 138.32 189.41 138.32H178.08C177.726 138.32 177.386 138.18 177.136 137.929C176.885 137.678 176.745 137.338 176.745 136.984V132.683H176.742Z" fill="#B3B3B3"/>
<path d="M182.384 132.683H185.104V156.052H182.384V132.683Z" fill="#8C8691"/>
<path d="M189.966 156.053H177.418C176.73 156.053 176.07 156.327 175.583 156.814C175.097 157.301 174.823 157.961 174.823 158.65V160.682H192.561V158.65C192.561 157.961 192.287 157.301 191.801 156.814C191.314 156.327 190.654 156.053 189.966 156.053Z" fill="#8C8691"/>
<path d="M171.577 123.418H195.909C197.098 123.418 198.239 123.891 199.08 124.732C199.92 125.573 200.393 126.715 200.393 127.905C200.393 128.325 200.311 128.74 200.15 129.128C199.99 129.516 199.754 129.869 199.458 130.166C199.161 130.463 198.809 130.699 198.421 130.86C198.033 131.021 197.618 131.103 197.198 131.104H170.289C169.442 131.104 168.629 130.767 168.03 130.167C167.43 129.567 167.094 128.754 167.094 127.906C167.094 126.716 167.566 125.575 168.407 124.733C169.248 123.892 170.388 123.419 171.577 123.419V123.418Z" fill="#605767"/>
<path d="M117.966 129.282H146.638V133.583C146.638 133.938 146.497 134.278 146.247 134.528C145.996 134.779 145.656 134.92 145.302 134.92H119.305C118.951 134.92 118.611 134.779 118.361 134.528C118.11 134.278 117.969 133.938 117.969 133.583V129.282H117.966Z" fill="#B3B3B3"/>
<path d="M125.301 132.683H139.304V136.984C139.304 137.338 139.164 137.678 138.913 137.929C138.663 138.18 138.323 138.32 137.969 138.32H126.64C126.286 138.32 125.946 138.18 125.695 137.929C125.445 137.678 125.304 137.338 125.304 136.984V132.683H125.301Z" fill="#B3B3B3"/>
<path d="M130.942 132.683H133.662V156.052H130.942V132.683Z" fill="#8C8691"/>
<path d="M138.527 156.053H125.976C125.288 156.053 124.628 156.327 124.142 156.814C123.655 157.301 123.382 157.961 123.382 158.65V160.682H141.119V158.65C141.119 157.962 140.846 157.302 140.36 156.815C139.874 156.328 139.215 156.054 138.527 156.053Z" fill="#8C8691"/>
<path d="M120.137 123.418H144.468C145.658 123.418 146.798 123.891 147.639 124.732C148.48 125.573 148.952 126.715 148.952 127.905C148.952 128.753 148.616 129.566 148.016 130.166C147.417 130.766 146.604 131.103 145.756 131.103H118.849C118.001 131.103 117.188 130.766 116.589 130.166C115.99 129.566 115.653 128.753 115.653 127.905C115.653 126.715 116.125 125.573 116.966 124.732C117.807 123.891 118.947 123.418 120.137 123.418Z" fill="#605767"/>
<path d="M230.46 160.736C230.628 160.736 230.794 160.698 230.946 160.625C231.098 160.553 231.233 160.448 231.339 160.317C231.446 160.186 231.522 160.034 231.562 159.87C231.603 159.706 231.606 159.536 231.573 159.371L229.941 151.351C229.918 151.198 229.864 151.051 229.783 150.92C229.702 150.789 229.594 150.675 229.468 150.587C229.341 150.498 229.198 150.436 229.047 150.405C228.896 150.373 228.74 150.373 228.588 150.404C228.437 150.435 228.294 150.496 228.167 150.584C228.04 150.673 227.932 150.786 227.851 150.917C227.769 151.048 227.715 151.194 227.691 151.347C227.668 151.5 227.676 151.655 227.715 151.805L229.346 159.825C229.399 160.082 229.538 160.313 229.741 160.479C229.944 160.645 230.198 160.736 230.46 160.736Z" fill="white"/>
<path d="M231.882 159.225C231.882 159.225 232.587 162.151 231.882 162.232C231.178 162.313 221.042 162.621 220.982 162.151C220.78 160.545 229.066 159.062 229.879 159.225C230.691 159.387 231.79 158.799 231.882 159.225ZM224.473 133.256C225.54 141.76 226.854 149.831 228.056 156.554C229.313 156.493 230.567 156.37 231.811 156.183C230.135 149.421 229.036 141.508 228.583 133.256H224.473Z" fill="#2D334A"/>
<path d="M258.444 160.736C258.275 160.736 258.109 160.698 257.957 160.625C257.805 160.553 257.671 160.448 257.564 160.317C257.458 160.186 257.382 160.034 257.341 159.87C257.301 159.706 257.297 159.536 257.331 159.371L258.962 151.351C259.036 151.068 259.214 150.825 259.461 150.671C259.709 150.516 260.006 150.463 260.291 150.521C260.577 150.579 260.829 150.745 260.996 150.984C261.163 151.223 261.232 151.517 261.189 151.805L259.557 159.825C259.505 160.082 259.365 160.313 259.162 160.479C258.96 160.645 258.706 160.736 258.444 160.736Z" fill="white"/>
<path d="M257.02 159.225C257.02 159.225 256.315 162.151 257.02 162.232C257.725 162.313 267.86 162.621 267.92 162.151C268.123 160.545 259.836 159.062 259.024 159.225C258.211 159.387 257.112 158.799 257.02 159.225ZM264.427 133.256C263.361 141.76 262.046 149.831 260.844 156.554C259.587 156.493 258.334 156.37 257.089 156.183C258.765 149.421 259.864 141.508 260.317 133.256H264.427Z" fill="#2D334A"/>
<path d="M148.958 161.253C148.792 161.287 148.622 161.284 148.458 161.244C148.294 161.203 148.141 161.127 148.01 161.021C147.879 160.914 147.773 160.78 147.701 160.627C147.628 160.475 147.59 160.308 147.59 160.139L147.574 151.953C147.574 151.651 147.694 151.362 147.907 151.148C148.121 150.935 148.41 150.815 148.712 150.815C149.013 150.815 149.303 150.935 149.516 151.148C149.73 151.362 149.849 151.651 149.849 151.953L149.865 160.139C149.865 160.401 149.774 160.655 149.609 160.857C149.444 161.06 149.214 161.2 148.958 161.253Z" fill="white"/>
<path d="M147.26 160.058C147.26 160.058 147.16 163.065 147.866 163.004C148.572 162.943 158.562 161.201 158.527 160.728C158.402 159.114 149.986 159.332 149.224 159.655C148.461 159.978 147.265 159.623 147.26 160.058ZM149.292 133.129C149.96 141.673 150.294 149.845 150.471 156.672C149.227 156.866 147.975 156.997 146.718 157.065C146.999 150.104 146.483 142.132 145.271 133.957L149.292 133.129Z" fill="#2D334A"/>
<path d="M161.125 159.64C160.98 159.727 160.818 159.78 160.65 159.796C160.482 159.812 160.313 159.791 160.154 159.733C159.996 159.676 159.852 159.584 159.733 159.464C159.614 159.345 159.523 159.2 159.467 159.041L156.756 151.318C156.664 151.036 156.686 150.728 156.818 150.462C156.95 150.196 157.181 149.992 157.461 149.893C157.741 149.795 158.049 149.81 158.318 149.935C158.587 150.06 158.797 150.286 158.902 150.564L161.613 158.287C161.7 158.534 161.699 158.804 161.61 159.05C161.521 159.297 161.349 159.505 161.125 159.64Z" fill="white"/>
<path d="M159.132 159.073C159.132 159.073 160.028 161.947 160.674 161.655C161.32 161.363 170.178 156.42 169.988 155.989C169.339 154.505 161.465 157.487 160.851 158.044C160.236 158.601 158.993 158.661 159.132 159.073ZM152.176 132.979C155.627 140.827 158.632 148.43 161.046 154.811C159.936 155.405 158.797 155.942 157.633 156.42C155.604 149.756 152.49 142.399 148.651 135.082L152.176 132.979Z" fill="#2D334A"/>
<path d="M102.398 109.577H106.53V163.314H102.398V109.577ZM270.446 109.577H274.578V163.314H270.446V109.577Z" fill="#133524"/>
<path d="M99.0065 109.577H278.235V146.608H99.0065V109.577Z" fill="#133524"/>
<path d="M99.0065 109.577H278.235V114.686H99.0065V109.577Z" fill="#DEDEDE"/>
<path d="M95.0225 107.199H282.219V111.927H95.0225V107.199ZM145.317 44.1096H146.646V86.0394H145.317V44.1096Z" fill="white"/>
<path d="M145.981 49.4607C154.069 49.4607 160.625 42.9003 160.625 34.8076C160.625 26.7149 154.069 20.1545 145.981 20.1545C137.894 20.1545 131.337 26.7149 131.337 34.8076C131.337 42.9003 137.894 49.4607 145.981 49.4607Z" fill="#49AF8A"/>
<path d="M143.105 29.3663V40.25H139.438V32.1343H137.573V29.3663H143.105ZM144.442 34.8087C144.442 31.2009 146.493 29.1179 149.367 29.1179C152.242 29.1179 154.293 31.202 154.293 34.8087C154.293 38.4155 152.242 40.4995 149.367 40.4995C146.493 40.4995 144.442 38.4155 144.442 34.8087ZM150.611 34.8087C150.611 32.7091 150.082 32.0563 149.367 32.0563C148.653 32.0563 148.124 32.7091 148.124 34.8087C148.124 36.9084 148.653 37.5611 149.367 37.5611C150.082 37.5611 150.611 36.9073 150.611 34.8087Z" fill="#504658"/>
<path d="M192.453 36.0818L193.737 35.7376L204.582 76.2387L203.298 76.5829L192.453 36.0818Z" fill="white"/>
<path d="M194.479 41.0779C202.291 38.9833 206.927 30.9485 204.834 23.1316C202.741 15.3146 194.711 10.6757 186.899 12.7703C179.087 14.8648 174.451 22.8996 176.544 30.7166C178.638 38.5335 186.667 43.1724 194.479 41.0779Z" fill="#49AF8A"/>
<path d="M195.253 25.3463C196.239 29.0221 194.457 31.8068 190.99 32.7347C189.744 33.0689 188.447 33.0945 187.511 32.7815L188.124 29.9611C188.856 30.2318 189.518 30.1839 190.178 30.0057C191.38 29.6838 192.055 28.8428 191.982 27.6064C191.557 28.1232 190.938 28.5142 190.053 28.7515C188.131 29.2661 186.101 28.4106 185.55 26.3533C184.947 24.0999 186.456 22.1662 188.827 21.5302C191.829 20.7271 194.333 21.9067 195.253 25.3463ZM191.089 24.6925C190.912 24.032 190.353 23.7468 189.723 23.9128C189.093 24.0787 188.751 24.6078 188.928 25.2684C189.105 25.9289 189.669 26.2285 190.299 26.0603C190.929 25.8921 191.266 25.353 191.089 24.6925Z" fill="#504658"/>
<path d="M230.594 44.1096H231.923V86.0394H230.594V44.1096Z" fill="white"/>
<path d="M231.259 49.4607C239.346 49.4607 245.903 42.9003 245.903 34.8076C245.903 26.7149 239.346 20.1545 231.259 20.1545C223.171 20.1545 216.615 26.7149 216.615 34.8076C216.615 42.9003 223.171 49.4607 231.259 49.4607Z" fill="#49AF8A"/>
<path d="M235.987 36.6745C235.987 38.6182 234.495 40.4995 231.014 40.4995C229.522 40.4995 227.89 40.1732 226.725 39.5204L227.968 36.8148C228.852 37.3262 229.853 37.5995 230.874 37.6079C231.698 37.6079 232.303 37.3127 232.303 36.7525C232.303 36.2857 231.977 35.9727 230.656 35.9727H227.501L228.045 29.3641H235.271V32.1321H231.06L230.982 33.2047H231.538C234.759 33.207 235.987 34.7464 235.987 36.6745Z" fill="#504658"/>
<path d="M178.116 24.9888C178.554 24.9888 178.987 24.9025 179.391 24.735C179.795 24.5675 180.163 24.3219 180.472 24.0123C180.781 23.7027 181.027 23.3352 181.194 22.9307C181.362 22.5263 181.448 22.0927 181.448 21.6549C181.448 22.5391 181.799 23.3871 182.424 24.0123C183.049 24.6375 183.896 24.9888 184.78 24.9888C183.896 24.9888 183.049 25.34 182.424 25.9652C181.799 26.5904 181.448 27.4384 181.448 28.3226C181.448 27.8848 181.362 27.4513 181.194 27.0468C181.027 26.6423 180.781 26.2748 180.472 25.9652C180.163 25.6557 179.795 25.4101 179.391 25.2425C178.987 25.075 178.554 24.9888 178.116 24.9888Z" fill="white"/>
</g>
<defs>
<filter id="filter0_d_33_446" x="7.81834" y="-2.48833" width="365.601" height="194.588" filterUnits="userSpaceOnUse" color-interpolation-filters="sRGB">
<feFlood flood-opacity="0" result="BackgroundImageFix"/>
<feColorMatrix in="SourceAlpha" type="matrix" values="0 0 0 0 0 0 0 0 0 0 0 0 0 0 0 0 0 0 127 0" result="hardAlpha"/>
<feOffset dx="2" dy="-5"/>
<feGaussianBlur stdDeviation="3.55"/>
<feComposite in2="hardAlpha" operator="out"/>
<feColorMatrix type="matrix" values="0 0 0 0 0 0 0 0 0 0 0 0 0 0 0 0 0 0 0.25 0"/>
<feBlend mode="normal" in2="BackgroundImageFix" result="effect1_dropShadow_33_446"/>
<feBlend mode="normal" in="SourceGraphic" in2="effect1_dropShadow_33_446" result="shape"/>
</filter>
<linearGradient id="paint0_linear_33_446" x1="189" y1="45" x2="188.619" y2="190" gradientUnits="userSpaceOnUse">
<stop stop-color="#218252"/>
<stop offset="1" stop-color="#218252" stop-opacity="0"/>
</linearGradient>
<linearGradient id="paint1_linear_33_446" x1="344.815" y1="71.8287" x2="344.815" y2="126.012" gradientUnits="userSpaceOnUse">
<stop stop-color="#262517"/>
<stop offset="1" stop-color="#262517" stop-opacity="0"/>
</linearGradient>
<clipPath id="clip0_33_446">
<rect width="370" height="190" fill="white"/>
</clipPath>
</defs>
</svg>
