<svg width="208" height="217" viewBox="0 0 208 217" fill="none" xmlns="http://www.w3.org/2000/svg">
<g clip-path="url(#clip0_33_353)">
<path opacity="0.18" d="M74.1989 38.6264C58.1398 48.3214 37.8877 50.5897 23.5705 62.6883C18.5139 66.9505 14.4349 72.2955 11.1459 78.0284C0.45206 96.6867 -1.73815 119.944 5.28448 140.245C12.3071 160.546 28.436 177.532 48.3941 185.665C57.9487 189.554 68.1758 191.471 78.4029 192.806C97.2587 195.27 116.315 195.841 135.286 194.511C147.281 193.673 159.944 191.771 169.172 184.099C175.32 178.977 179.329 171.77 182.423 164.413C190.8 144.406 193.39 122.465 189.901 101.07C187.77 88.1295 183.353 75.4601 176.088 64.5285C163.861 46.1263 144.635 34.0533 124.901 24.8778C117.158 21.2778 107.261 14.9998 98.6366 18.6364C89.5634 22.4558 82.8458 33.4057 74.1989 38.6264Z" fill="black"/>
<path opacity="0.12" d="M6.39051 193.838C4.6964 194.16 2.91778 194.533 1.63525 195.667C-0.815869 197.862 -0.31609 202.051 1.83737 204.528C3.99083 207.005 7.26512 208.157 10.4145 209.101C36.5941 216.949 64.4016 217.007 91.7388 216.996C100.092 216.996 108.661 216.952 116.46 213.982C121.869 211.922 126.668 208.534 131.997 206.299C152.014 197.848 175.426 206.617 196.59 201.645C199.07 201.064 201.83 200.003 202.693 197.621C204.439 192.792 197.38 189.858 192.231 189.605C169.64 188.493 147.006 188.599 124.427 189.923C106.387 190.981 89.9528 185.65 71.8469 186.378C49.873 187.252 27.9943 189.745 6.39051 193.838Z" fill="#25233A"/>
<path d="M109.389 189.565H103.403C101.356 189.565 99.3932 188.756 97.946 187.315C96.4987 185.874 95.6857 183.92 95.6857 181.882V7.70113C95.6857 5.66352 96.4987 3.70936 97.946 2.26855C99.3932 0.827733 101.356 0.0182934 103.403 0.0182934H109.389C108.374 0.0182905 107.369 0.217618 106.432 0.60486C105.494 0.992102 104.643 1.55965 103.926 2.27501C103.209 2.99037 102.641 3.83948 102.254 4.77371C101.867 5.70795 101.67 6.70896 101.672 7.71943V181.867C101.67 182.878 101.868 183.878 102.255 184.812C102.642 185.746 103.21 186.595 103.927 187.31C104.644 188.025 105.495 188.592 106.433 188.979C107.37 189.366 108.375 189.565 109.389 189.565Z" fill="#68E1FD"/>
<path d="M109.389 189.565H103.403C101.356 189.565 99.3932 188.756 97.946 187.315C96.4987 185.874 95.6857 183.92 95.6857 181.882V7.70113C95.6857 5.66352 96.4987 3.70936 97.946 2.26855C99.3932 0.827733 101.356 0.0182934 103.403 0.0182934H109.389C108.374 0.0182905 107.369 0.217618 106.432 0.60486C105.494 0.992102 104.643 1.55965 103.926 2.27501C103.209 2.99037 102.641 3.83948 102.254 4.77371C101.867 5.70795 101.67 6.70896 101.672 7.71943V181.867C101.67 182.878 101.868 183.878 102.255 184.812C102.642 185.746 103.21 186.595 103.927 187.31C104.644 188.025 105.495 188.592 106.433 188.979C107.37 189.366 108.375 189.565 109.389 189.565Z" fill="#0D3923"/>
<path d="M53.0684 59.9664C53.0684 59.9664 36.0465 81.9686 37.7774 91.8648C39.5082 101.761 43.6939 111.796 43.6939 111.796L55.119 63.2261L53.0684 59.9664Z" fill="#68E1FD"/>
<path d="M53.0684 59.9664C53.0684 59.9664 36.0465 81.9686 37.7774 91.8648C39.5082 101.761 43.6939 111.796 43.6939 111.796L55.119 63.2261L53.0684 59.9664Z" fill="#6F5D5D"/>
<path d="M200.264 0H109.389C105.117 0 101.654 3.44791 101.654 7.70113V181.864C101.654 186.117 105.117 189.565 109.389 189.565H200.264C204.537 189.565 208 186.117 208 181.864V7.70113C208 3.44791 204.537 0 200.264 0Z" fill="url(#paint0_linear_33_353)"/>
<path opacity="0.18" d="M155.916 21.362H110.091C109.373 21.3591 108.685 21.0729 108.178 20.5662C107.671 20.0595 107.386 19.3735 107.386 18.6583C107.387 17.9438 107.672 17.2587 108.179 16.7528C108.686 16.2469 109.373 15.9613 110.091 15.9584H155.916C156.636 15.9584 157.326 16.2427 157.835 16.7489C158.345 17.2552 158.631 17.9419 158.632 18.6583C158.632 19.3754 158.346 20.0631 157.837 20.5701C157.327 21.0771 156.637 21.362 155.916 21.362ZM155.916 48.8995H110.091C109.371 48.8995 108.68 48.6146 108.171 48.1076C107.661 47.6005 107.375 46.9129 107.375 46.1958C107.376 45.4794 107.663 44.7927 108.172 44.2864C108.681 43.7802 109.371 43.4959 110.091 43.4959H155.916C156.636 43.4959 157.326 43.7802 157.835 44.2864C158.345 44.7927 158.631 45.4794 158.632 46.1958C158.632 46.9129 158.346 47.6005 157.837 48.1076C157.327 48.6146 156.637 48.8995 155.916 48.8995ZM155.916 76.4369H110.091C109.371 76.4369 108.681 76.1526 108.172 75.6464C107.663 75.1401 107.376 74.4534 107.375 73.737C107.375 73.0199 107.661 72.3323 108.171 71.8252C108.68 71.3182 109.371 71.0334 110.091 71.0334H155.916C156.637 71.0334 157.327 71.3182 157.837 71.8252C158.346 72.3323 158.632 73.0199 158.632 73.737C158.631 74.4534 158.345 75.1401 157.835 75.6464C157.326 76.1526 156.636 76.4369 155.916 76.4369ZM155.916 103.974H110.091C109.371 103.974 108.681 103.69 108.172 103.184C107.663 102.678 107.376 101.991 107.375 101.274C107.375 100.557 107.661 99.8698 108.171 99.3627C108.68 98.8557 109.371 98.5708 110.091 98.5708H155.916C156.637 98.5708 157.327 98.8557 157.837 99.3627C158.346 99.8698 158.632 100.557 158.632 101.274C158.631 101.991 158.345 102.678 157.835 103.184C157.326 103.69 156.636 103.974 155.916 103.974ZM155.916 131.512H110.091C109.371 131.512 108.681 131.228 108.172 130.721C107.663 130.215 107.376 129.528 107.375 128.812C107.375 128.095 107.661 127.407 108.171 126.9C108.68 126.393 109.371 126.108 110.091 126.108H155.916C156.637 126.108 157.327 126.393 157.837 126.9C158.346 127.407 158.632 128.095 158.632 128.812C158.631 129.528 158.345 130.215 157.835 130.721C157.326 131.228 156.636 131.512 155.916 131.512ZM155.916 159.049H110.091C109.735 159.05 109.382 158.98 109.052 158.845C108.723 158.709 108.423 158.511 108.171 158.26C107.919 158.009 107.719 157.711 107.582 157.384C107.446 157.056 107.375 156.704 107.375 156.349C107.378 155.634 107.666 154.949 108.175 154.445C108.684 153.94 109.373 153.657 110.091 153.657H155.916C156.637 153.657 157.327 153.942 157.837 154.449C158.346 154.956 158.632 155.643 158.632 156.36C158.629 157.075 158.342 157.76 157.833 158.264C157.324 158.768 156.634 159.05 155.916 159.049Z" fill="white"/>
<path d="M45.1345 117.957C48.3573 111.793 64.0379 125.077 66.0186 131.666C67.9994 138.255 55.119 161.438 48.4308 168.591C41.7426 175.743 29.3584 182.153 21.428 184.374C21.428 184.374 18.6388 180.667 19.2011 179.146C19.7633 177.624 36.1679 165.712 37.6562 158.519C39.1445 151.326 41.9153 124.125 45.1345 117.957Z" fill="#25233A"/>
<path d="M120.818 60.5737C120.818 60.5737 118.837 54.8445 119.168 54.2152C119.499 53.586 121.424 52.1336 122.332 52.9823C123.24 53.8311 125.084 59.092 125.084 59.092L144.429 52.5067C144.429 52.5067 146.59 52.1738 146.362 54.5262C146.134 56.8786 125.32 65.1212 125.32 65.1212C125.32 65.1212 123.625 66.848 120.818 60.5737Z" fill="white"/>
<path d="M72.9751 28.0826C72.9751 28.0826 79.0092 38.5679 77.8148 44.9117C76.6205 51.2555 73.2066 49.8433 71.9975 53.1323C71.2384 55.2846 70.7508 57.5225 70.546 59.7945C70.546 59.7945 67.0402 62.6261 60.7672 54.9177C61.3267 51.7809 60.9893 48.5508 59.7934 45.5958C57.8053 40.8727 58.882 23.7327 72.9751 28.0826Z" fill="url(#paint1_linear_33_353)"/>
<path d="M55.9092 22.6827C46.6706 31.4631 45.513 25.7997 38.7623 27.3948C33.68 28.5948 31.1738 32.963 32.8495 42.1056C34.5252 51.2482 26.7897 46.6604 22.6297 55.075C15.1661 70.1297 28.7337 72.2699 39.1923 71.8346C49.6509 71.3992 48.6844 52.3567 56.4053 51.6214C64.1261 50.886 65.7063 52.0348 68.8373 42.1605C70.6747 36.3508 69.3664 33.8155 71.8653 31.8435C75.0551 29.3265 76.1686 23.8753 72.8392 21.5485C69.157 18.9912 61.7889 17.0852 55.9092 22.6827Z" fill="#3F3D56"/>
<path d="M55.255 58.5359C55.255 58.5359 54.4833 55.0274 57.019 53.8238C59.5546 52.6201 66.8051 52.0384 67.8083 53.8238C68.8116 55.6091 69.9214 59.6774 71.0018 59.7432C72.0822 59.8091 76.514 66.859 76.514 66.859C76.514 66.859 77.4401 86.3624 77.4915 93.9319C77.5761 105.961 70.3329 124.744 60.3374 123.225C50.3418 121.707 43.0472 118.93 43.2236 113.768C43.4 108.606 51.8338 69.7382 51.2311 65.359C50.5843 60.6286 55.086 58.353 55.255 58.5359Z" fill="#68E1FD"/>
<path d="M77.4952 93.9209C77.5797 105.95 70.3366 124.733 60.341 123.214C50.3454 121.696 43.0509 118.919 43.2273 113.757C43.4036 108.595 51.8374 69.7273 51.2347 65.348C50.5843 60.6286 55.086 58.353 55.255 58.5176C55.255 58.5176 54.4833 55.0091 57.019 53.8055C59.5546 52.6018 66.8051 52.0201 67.8083 53.8055C68.738 55.4665 69.767 59.081 70.7739 59.6591C70.8436 59.6998 70.9213 59.7248 71.0017 59.7323C72.0822 59.8164 76.514 66.848 76.514 66.848C76.514 66.848 77.4437 86.3405 77.4952 93.9209Z" fill="#575757"/>
<path d="M64.2326 64.6017C64.2326 64.6017 68.0838 57.0396 73.5336 61.642C78.9834 66.2444 85.69 83.2271 90.3534 83.3295C95.0168 83.432 114.159 68.0517 115.853 69.4273C117.547 70.8029 120.428 74.2894 118.863 77.2491C117.297 80.2088 95.8693 98.8928 86.6381 97.144C77.4069 95.3953 57.7428 82.8503 64.2326 64.6017Z" fill="#68E1FD"/>
<path d="M64.2326 64.6017C64.2326 64.6017 68.0838 57.0396 73.5336 61.642C78.9834 66.2444 85.69 83.2271 90.3534 83.3295C95.0168 83.432 114.159 68.0517 115.853 69.4273C117.547 70.8029 120.428 74.2894 118.863 77.2491C117.297 80.2088 95.8693 98.8928 86.6381 97.144C77.4069 95.3953 57.7428 82.8503 64.2326 64.6017Z" fill="#6F5D5D"/>
<path d="M116.467 69.987C116.467 69.987 120.381 62.7688 120.682 61.4627C120.983 60.1566 121.976 62.1213 121.976 62.1213C121.976 62.1213 125.305 59.4908 125.882 58.3384C126.459 57.1859 131.291 55.4116 133.481 55.6933C135.672 55.975 132.012 57.3177 132.012 57.3177C132.012 57.3177 130.277 58.1079 129.366 62.4395C128.454 66.7712 127.528 70.4882 123.519 72.3175C119.51 74.1467 119.238 74.5309 119.238 74.5309C119.238 74.5309 118.279 70.7187 116.467 69.987Z" fill="url(#paint2_linear_33_353)"/>
<path d="M45.1344 117.957C45.1344 117.957 40.3387 128.885 49.2576 139.078C58.1764 149.27 64.8242 157.246 62.9427 173.029C61.0612 188.811 65.5702 196.951 65.5702 196.951H70.8289C70.8289 196.951 78.9871 167.705 77.5796 155.321C76.1722 142.937 70.0352 117.986 70.0352 117.986C70.0352 117.986 58.0148 112.287 45.1344 117.957Z" fill="#3F3D56"/>
<path d="M65.5703 196.951V203.61H80.0566C80.0566 203.61 71.3839 202.048 71.1377 200.281C70.8915 198.514 70.829 196.951 70.829 196.951H65.5703Z" fill="url(#paint3_linear_33_353)"/>
<path d="M66.647 201.583C65.9892 201.444 65.177 201.283 64.7581 201.806C64.6237 202.002 64.538 202.226 64.5082 202.461C64.3792 203.11 64.3323 203.773 64.3686 204.433C64.3943 204.923 64.5082 205.479 64.9345 205.725C65.2037 205.846 65.5005 205.894 65.7944 205.864L80.8172 205.589C81.3905 205.589 82.0519 205.523 82.3753 205.055C82.5232 204.823 82.5892 204.549 82.5627 204.276C82.5248 203.904 82.4067 203.544 82.2165 203.221C82.0262 202.899 81.7683 202.621 81.4603 202.406C80.8377 201.983 80.1465 201.67 79.4171 201.481C77.5797 200.917 74.5663 199.864 72.7362 200.636C70.715 201.473 68.8592 202.037 66.647 201.583Z" fill="#091240"/>
<path d="M19.0504 180.144L13.0751 183.174L20.3255 195.656C20.3255 195.656 17.3416 187.403 18.7564 186.302C20.1712 185.2 21.4978 184.37 21.4978 184.37L19.0504 180.144Z" fill="url(#paint4_linear_33_353)"/>
<path d="M15.3865 183.082C15.1771 182.445 14.9125 181.663 14.2473 181.567C14.0103 181.548 13.772 181.585 13.5528 181.677C12.9234 181.891 12.3234 182.182 11.7668 182.544C11.3552 182.811 10.929 183.188 10.929 183.678C10.9588 183.972 11.0666 184.252 11.2413 184.491C13.826 188.761 16.4118 193.03 18.9989 197.295C19.2929 197.782 19.6751 198.327 20.2447 198.371C20.5198 198.381 20.7907 198.301 21.0164 198.144C21.3205 197.922 21.5732 197.638 21.7576 197.31C21.9421 196.983 22.054 196.619 22.0858 196.245C22.1407 195.497 22.0661 194.744 21.8653 194.021C21.428 192.144 20.84 189.031 19.2562 187.842C17.5143 186.532 16.0958 185.219 15.3865 183.082Z" fill="#091240"/>
<path opacity="0.18" d="M187.682 8.93039H172.163C170.994 8.93039 170.046 9.87385 170.046 11.0377V24.0217C170.046 25.1855 170.994 26.129 172.163 26.129H187.682C188.851 26.129 189.798 25.1855 189.798 24.0217V11.0377C189.798 9.87385 188.851 8.93039 187.682 8.93039Z" fill="white"/>
<path opacity="0.18" d="M187.682 38.8203H172.163C170.994 38.8203 170.046 39.7638 170.046 40.9276V53.9116C170.046 55.0754 170.994 56.0189 172.163 56.0189H187.682C188.851 56.0189 189.798 55.0754 189.798 53.9116V40.9276C189.798 39.7638 188.851 38.8203 187.682 38.8203Z" fill="white"/>
<path opacity="0.18" d="M187.682 65.9444H172.163C170.994 65.9444 170.046 66.8878 170.046 68.0517V81.0357C170.046 82.1995 170.994 83.143 172.163 83.143H187.682C188.851 83.143 189.798 82.1995 189.798 81.0357V68.0517C189.798 66.8878 188.851 65.9444 187.682 65.9444Z" fill="white"/>
<path opacity="0.18" d="M187.682 119.604H172.163C170.994 119.604 170.046 120.547 170.046 121.711V134.695C170.046 135.859 170.994 136.802 172.163 136.802H187.682C188.851 136.802 189.798 135.859 189.798 134.695V121.711C189.798 120.547 188.851 119.604 187.682 119.604Z" fill="white"/>
<path opacity="0.18" d="M187.682 92.6733H172.163C170.994 92.6733 170.046 93.6168 170.046 94.7806V107.765C170.046 108.928 170.994 109.872 172.163 109.872H187.682C188.851 109.872 189.798 108.928 189.798 107.765V94.7806C189.798 93.6168 188.851 92.6733 187.682 92.6733Z" fill="white"/>
<path opacity="0.18" d="M187.682 147.748H172.163C170.994 147.748 170.046 148.692 170.046 149.856V162.84C170.046 164.003 170.994 164.947 172.163 164.947H187.682C188.851 164.947 189.798 164.003 189.798 162.84V149.856C189.798 148.692 188.851 147.748 187.682 147.748Z" fill="white"/>
<path d="M171.432 15.0181L174.981 20.9559C176.084 22.7851 178.021 23.1875 179.413 21.8559L191.434 10.3316C191.434 10.3316 192.536 8.74014 191.364 7.51089C190.192 6.28164 189.192 7.69747 189.192 7.69747L178.535 17.8827C177.859 18.4974 176.94 18.2925 176.418 17.4144L173.589 12.6584C173.052 11.7584 172.071 11.6743 171.487 12.4828C171.246 12.8601 171.113 13.2958 171.104 13.7428C171.094 14.1897 171.207 14.6308 171.432 15.0181ZM171.432 44.3812L174.981 50.3153C176.084 52.1445 178.021 52.547 179.413 51.2153L191.434 39.691C191.434 39.691 192.536 38.1032 191.364 36.8703C190.192 35.6374 189.192 37.0569 189.192 37.0569L178.535 47.2458C177.859 47.8568 176.94 47.6556 176.418 46.7775L173.589 42.0215C173.052 41.1178 172.071 41.0373 171.487 41.8459C171.246 42.2232 171.113 42.6589 171.104 43.1059C171.094 43.5528 171.207 43.9939 171.432 44.3812ZM171.432 100.279L174.981 106.217C176.084 108.046 178.021 108.449 179.413 107.117L191.434 95.5928C191.434 95.5928 192.536 94.0014 191.364 92.7721C190.192 91.5429 189.192 92.9587 189.192 92.9587L178.535 103.144C177.859 103.759 176.94 103.554 176.418 102.676L173.589 97.9196C173.052 97.0196 172.071 96.9355 171.487 97.744C171.246 98.1213 171.113 98.5571 171.104 99.004C171.094 99.451 171.207 99.8921 171.432 100.279ZM171.432 127.414L174.981 133.348C176.084 135.178 178.021 135.58 179.413 134.248L191.434 122.728C191.434 122.728 192.536 121.136 191.364 119.904C190.192 118.671 189.192 120.09 189.192 120.09L178.535 130.279C177.859 130.89 176.94 130.689 176.418 129.811L173.589 125.055C173.052 124.151 172.071 124.071 171.487 124.879C171.246 125.256 171.113 125.692 171.104 126.139C171.094 126.586 171.207 127.027 171.432 127.414ZM171.432 153.84L174.981 159.777C176.084 161.607 178.021 162.009 179.413 160.677L191.434 149.153C191.434 149.153 192.536 147.562 191.364 146.333C190.192 145.103 189.192 146.519 189.192 146.519L178.535 156.704C177.859 157.319 176.94 157.114 176.418 156.236L173.589 151.48C173.052 150.58 172.071 150.496 171.487 151.304C171.246 151.682 171.113 152.117 171.104 152.564C171.094 153.011 171.207 153.452 171.432 153.84Z" fill="white"/>
<path d="M70.7702 59.6518C61.6235 56.6408 55.2514 58.5176 55.2514 58.5176C55.2514 58.5176 54.4796 55.0091 57.0153 53.8055C59.5509 52.6018 66.8014 52.0201 67.8046 53.8055C68.738 55.4665 69.767 59.081 70.7702 59.6518Z" fill="#575757"/>
</g>
<defs>
<linearGradient id="paint0_linear_33_353" x1="154.654" y1="-56.4351" x2="153" y2="383.5" gradientUnits="userSpaceOnUse">
<stop stop-color="#FCFFFD"/>
<stop offset="0.0001" stop-opacity="0.994792"/>
<stop offset="1" stop-color="#02FF81" stop-opacity="0"/>
</linearGradient>
<linearGradient id="paint1_linear_33_353" x1="59.0327" y1="43.8471" x2="77.9839" y2="43.8471" gradientUnits="userSpaceOnUse">
<stop stop-color="#ECC4D7"/>
<stop offset="0.42" stop-color="#EFD4D1"/>
<stop offset="1" stop-color="#F2EAC9"/>
</linearGradient>
<linearGradient id="paint2_linear_33_353" x1="116.467" y1="65.1102" x2="134.176" y2="65.1102" gradientUnits="userSpaceOnUse">
<stop stop-color="#ECC4D7"/>
<stop offset="0.42" stop-color="#EFD4D1"/>
<stop offset="1" stop-color="#F2EAC9"/>
</linearGradient>
<linearGradient id="paint3_linear_33_353" x1="65.5703" y1="200.281" x2="80.0566" y2="200.281" gradientUnits="userSpaceOnUse">
<stop stop-color="#ECC4D7"/>
<stop offset="0.42" stop-color="#EFD4D1"/>
<stop offset="1" stop-color="#F2EAC9"/>
</linearGradient>
<linearGradient id="paint4_linear_33_353" x1="13.0824" y1="187.9" x2="21.5052" y2="187.9" gradientUnits="userSpaceOnUse">
<stop stop-color="#ECC4D7"/>
<stop offset="0.42" stop-color="#EFD4D1"/>
<stop offset="1" stop-color="#F2EAC9"/>
</linearGradient>
<clipPath id="clip0_33_353">
<rect width="208" height="217" fill="white"/>
</clipPath>
</defs>
</svg>
