<svg width="1440" height="1024" viewBox="0 0 1440 1024" fill="none" xmlns="http://www.w3.org/2000/svg">
<rect x="-123" y="-46" width="1653" height="1130" fill="url(#paint0_linear_8_33)"/>
<g filter="url(#filter0_i_8_33)">
<path fill-rule="evenodd" clip-rule="evenodd" d="M449 1140.08L523.015 1142.85C597.891 1146.91 747.645 1155.03 884.472 1143.8C1021.3 1132.58 1146.06 1103.3 1220.85 999.235C1295.63 895.165 1321.29 717.592 1409 632.865C1495.85 546.849 1645.6 554.97 1720.48 559.03L1794.5 561.8L1906.52 729.44L1856.63 762.777C1806.75 796.113 1706.97 862.786 1607.2 929.459C1507.43 996.132 1407.65 1062.81 1307.88 1129.48C1208.11 1196.15 1108.33 1262.82 1008.56 1329.5C908.788 1396.17 809.014 1462.84 759.128 1496.18L709.241 1529.52L449 1140.08Z" fill="url(#paint1_linear_8_33)"/>
<path fill-rule="evenodd" clip-rule="evenodd" d="M449 1140.08L523.015 1142.85C597.891 1146.91 747.645 1155.03 884.472 1143.8C1021.3 1132.58 1146.06 1103.3 1220.85 999.235C1295.63 895.165 1321.29 717.592 1409 632.865C1495.85 546.849 1645.6 554.97 1720.48 559.03L1794.5 561.8L1906.52 729.44L1856.63 762.777C1806.75 796.113 1706.97 862.786 1607.2 929.459C1507.43 996.132 1407.65 1062.81 1307.88 1129.48C1208.11 1196.15 1108.33 1262.82 1008.56 1329.5C908.788 1396.17 809.014 1462.84 759.128 1496.18L709.241 1529.52L449 1140.08Z" stroke="#B36363"/>
</g>
<g filter="url(#filter1_i_8_33)">
<path fill-rule="evenodd" clip-rule="evenodd" d="M995.521 -125.56L921.506 -128.33C846.629 -132.39 696.876 -140.511 560.048 -129.288C423.221 -118.065 298.457 -88.7887 223.674 15.2809C148.891 119.35 123.226 296.924 35.5167 381.65C-51.3308 467.666 -201.084 459.546 -275.961 455.486L-349.976 452.715L-462 285.075L-412.114 251.739C-362.227 218.402 -262.454 151.729 -162.68 85.0564C-62.9069 18.3834 36.8664 -48.2895 136.64 -114.962C236.413 -181.635 336.186 -248.308 435.96 -314.981C535.733 -381.654 635.506 -448.327 685.393 -481.664L735.28 -515L995.521 -125.56Z" fill="url(#paint2_linear_8_33)"/>
<path fill-rule="evenodd" clip-rule="evenodd" d="M995.521 -125.56L921.506 -128.33C846.629 -132.39 696.876 -140.511 560.048 -129.288C423.221 -118.065 298.457 -88.7887 223.674 15.2809C148.891 119.35 123.226 296.924 35.5167 381.65C-51.3308 467.666 -201.084 459.546 -275.961 455.486L-349.976 452.715L-462 285.075L-412.114 251.739C-362.227 218.402 -262.454 151.729 -162.68 85.0564C-62.9069 18.3834 36.8664 -48.2895 136.64 -114.962C236.413 -181.635 336.186 -248.308 435.96 -314.981C535.733 -381.654 635.506 -448.327 685.393 -481.664L735.28 -515L995.521 -125.56Z" stroke="#B36363"/>
</g>
<path fill-rule="evenodd" clip-rule="evenodd" d="M-596.697 687.106L-530.524 688.538C-466.022 690.957 -335.347 694.808 -204.672 698.659C-72.3264 701.524 58.3487 705.375 118.075 589.084C177.801 472.793 166.578 236.359 255.866 170.128C345.154 103.896 536.624 206.879 679.123 230.754C821.623 254.629 916.824 198.409 976.55 82.1174C1036.28 -34.1736 1060.53 -210.536 1127.84 -317.801C1193.47 -424.081 1300.5 -460.277 1353.18 -477.882L1407.53 -496.473L1655.85 -75.9757L1607.41 -47.3726C1560.65 -19.7556 1465.45 36.4644 1370.25 92.6844C1273.37 149.891 1178.17 206.111 1082.97 262.331C987.773 318.551 892.573 374.771 797.372 430.991C702.171 487.211 605.301 544.417 510.1 600.637C414.899 656.857 319.699 713.077 224.498 769.297C129.298 825.517 34.0972 881.737 -62.7735 938.943C-157.974 995.163 -253.175 1051.38 -299.94 1079L-348.375 1107.6L-596.697 687.106Z" fill="url(#paint3_linear_8_33)"/>
<path fill-rule="evenodd" clip-rule="evenodd" d="M-264.118 1414.59L-229.857 1357.96C-197.325 1302.21 -130.532 1189.83 -63.7387 1077.45C4.78216 964.184 71.5751 851.803 201.763 863.716C331.951 875.628 525.534 1011.84 629.307 971.959C733.081 932.083 748.772 715.242 805 582.145C861.227 449.048 959.717 398.814 1089.91 410.727C1220.09 422.64 1381.98 496.7 1508.61 497.374C1633.52 498.929 1721.44 427.979 1764.54 392.944L1809.37 357.029L1587.48 -77.9999L1537.37 -52.4423C1488.99 -27.7658 1390.5 22.4684 1292.01 72.7024C1191.79 123.818 1093.3 174.052 994.813 224.286C896.322 274.52 797.832 324.754 699.341 374.989C600.851 425.223 500.632 476.338 402.142 526.572C303.651 576.806 205.161 627.04 106.671 677.275C8.18015 727.509 -90.3103 777.743 -190.529 828.858C-289.019 879.092 -387.51 929.326 -435.891 954.003L-486 979.561L-264.118 1414.59Z" fill="url(#paint4_linear_8_33)"/>
<defs>
<filter id="filter0_i_8_33" x="449" y="556.758" width="1470.52" height="976.758" filterUnits="userSpaceOnUse" color-interpolation-filters="sRGB">
<feFlood flood-opacity="0" result="BackgroundImageFix"/>
<feBlend mode="normal" in="SourceGraphic" in2="BackgroundImageFix" result="shape"/>
<feColorMatrix in="SourceAlpha" type="matrix" values="0 0 0 0 0 0 0 0 0 0 0 0 0 0 0 0 0 0 127 0" result="hardAlpha"/>
<feOffset dx="13" dy="4"/>
<feGaussianBlur stdDeviation="15"/>
<feComposite in2="hardAlpha" operator="arithmetic" k2="-1" k3="1"/>
<feColorMatrix type="matrix" values="0 0 0 0 0 0 0 0 0 0 0 0 0 0 0 0 0 0 0.25 0"/>
<feBlend mode="normal" in2="shape" result="effect1_innerShadow_8_33"/>
</filter>
<filter id="filter1_i_8_33" x="-469" y="-517" width="1464.52" height="974.758" filterUnits="userSpaceOnUse" color-interpolation-filters="sRGB">
<feFlood flood-opacity="0" result="BackgroundImageFix"/>
<feBlend mode="normal" in="SourceGraphic" in2="BackgroundImageFix" result="shape"/>
<feColorMatrix in="SourceAlpha" type="matrix" values="0 0 0 0 0 0 0 0 0 0 0 0 0 0 0 0 0 0 127 0" result="hardAlpha"/>
<feOffset dx="-7" dy="-2"/>
<feGaussianBlur stdDeviation="15"/>
<feComposite in2="hardAlpha" operator="arithmetic" k2="-1" k3="1"/>
<feColorMatrix type="matrix" values="0 0 0 0 0 0 0 0 0 0 0 0 0 0 0 0 0 0 0.25 0"/>
<feBlend mode="normal" in2="shape" result="effect1_innerShadow_8_33"/>
</filter>
<linearGradient id="paint0_linear_8_33" x1="703.5" y1="-46" x2="703.5" y2="1084" gradientUnits="userSpaceOnUse">
<stop stop-color="#D9D9D9"/>
<stop offset="1" stop-color="#D9D9D9" stop-opacity="0"/>
</linearGradient>
<linearGradient id="paint1_linear_8_33" x1="1047.64" y1="740.038" x2="1307.88" y2="1129.48" gradientUnits="userSpaceOnUse">
<stop stop-color="#17432D"/>
<stop offset="1" stop-color="#17432D" stop-opacity="0"/>
</linearGradient>
<linearGradient id="paint2_linear_8_33" x1="396.881" y1="274.478" x2="136.64" y2="-114.962" gradientUnits="userSpaceOnUse">
<stop stop-color="#17432D"/>
<stop offset="1" stop-color="#17432D" stop-opacity="0"/>
</linearGradient>
<linearGradient id="paint3_linear_8_33" x1="392.111" y1="72.7896" x2="653.736" y2="515.814" gradientUnits="userSpaceOnUse">
<stop/>
<stop offset="1" stop-color="#00FF7F" stop-opacity="0"/>
</linearGradient>
<linearGradient id="paint4_linear_8_33" x1="784.511" y1="909.114" x2="550.742" y2="450.78" gradientUnits="userSpaceOnUse">
<stop/>
<stop offset="1" stop-color="#00FF7F" stop-opacity="0"/>
</linearGradient>
</defs>
</svg>
